<mxfile host="app.diagrams.net" modified="2023-03-18T22:38:07.350Z" agent="5.0 (Windows NT 10.0; Win64; x64) AppleWebKit/537.36 (KHTML, like Gecko) Chrome/111.0.0.0 Safari/537.36 Edg/111.0.1661.41" etag="W3-kd4_4FKB2sXyjeslq" version="21.0.7" type="github">
  <diagram name="Page-1" id="Lr7xdV_DK0pyXYNZXIYV">
    <mxGraphModel dx="1750" dy="1235" grid="1" gridSize="10" guides="1" tooltips="1" connect="1" arrows="1" fold="1" page="1" pageScale="1" pageWidth="1920" pageHeight="1200" math="0" shadow="0">
      <root>
        <mxCell id="0" />
        <mxCell id="1" parent="0" />
        <mxCell id="YcFo5e7i3pAqQ6xfK6MD-30" style="edgeStyle=orthogonalEdgeStyle;shape=connector;rounded=0;orthogonalLoop=1;jettySize=auto;html=1;exitX=0.5;exitY=1;exitDx=0;exitDy=0;entryX=0;entryY=0.5;entryDx=0;entryDy=0;labelBackgroundColor=default;strokeColor=#76608a;fontFamily=Helvetica;fontSize=12;fontColor=default;endArrow=classic;startSize=8;endSize=8;elbow=vertical;" parent="1" source="ucayvBUJVL6Ij2z3_t0v-1" target="m3mGF3cVDRf6Q7rcO0Uu-3" edge="1">
          <mxGeometry relative="1" as="geometry">
            <mxPoint x="1350" y="960" as="targetPoint" />
          </mxGeometry>
        </mxCell>
        <mxCell id="ucayvBUJVL6Ij2z3_t0v-1" value="MAR" style="rounded=0;whiteSpace=wrap;html=1;fontSize=21;fontFamily=Cambria;labelBackgroundColor=none;fillColor=#76608a;fontColor=#ffffff;strokeColor=#432D57;" parent="1" vertex="1">
          <mxGeometry x="1370" y="730" width="120" height="60" as="geometry" />
        </mxCell>
        <mxCell id="ucayvBUJVL6Ij2z3_t0v-3" style="edgeStyle=orthogonalEdgeStyle;rounded=0;orthogonalLoop=1;jettySize=auto;html=1;entryX=0.25;entryY=1;entryDx=0;entryDy=0;labelBackgroundColor=none;fontColor=default;endSize=8;startSize=8;strokeColor=#CC0000;" parent="1" source="YcFo5e7i3pAqQ6xfK6MD-83" target="YcFo5e7i3pAqQ6xfK6MD-47" edge="1">
          <mxGeometry relative="1" as="geometry">
            <Array as="points">
              <mxPoint x="1240" y="540" />
              <mxPoint x="1240" y="730" />
            </Array>
          </mxGeometry>
        </mxCell>
        <mxCell id="YcFo5e7i3pAqQ6xfK6MD-28" style="edgeStyle=orthogonalEdgeStyle;shape=connector;rounded=0;orthogonalLoop=1;jettySize=auto;html=1;entryX=0.5;entryY=1;entryDx=0;entryDy=0;labelBackgroundColor=default;strokeColor=#ff0000;fontFamily=Helvetica;fontSize=12;fontColor=default;endArrow=classic;startSize=8;endSize=8;elbow=vertical;" parent="1" source="ucayvBUJVL6Ij2z3_t0v-2" target="YcFo5e7i3pAqQ6xfK6MD-24" edge="1">
          <mxGeometry relative="1" as="geometry">
            <Array as="points">
              <mxPoint x="1160" y="540" />
              <mxPoint x="1160" y="830" />
            </Array>
          </mxGeometry>
        </mxCell>
        <mxCell id="ucayvBUJVL6Ij2z3_t0v-2" value="PC" style="rounded=0;whiteSpace=wrap;html=1;fontSize=21;fontFamily=Cambria;labelBackgroundColor=none;fillColor=#a20025;fontColor=#ffffff;strokeColor=#6F0000;" parent="1" vertex="1">
          <mxGeometry x="970" y="510" width="120" height="60" as="geometry" />
        </mxCell>
        <mxCell id="m3mGF3cVDRf6Q7rcO0Uu-15" style="edgeStyle=orthogonalEdgeStyle;rounded=0;orthogonalLoop=1;jettySize=auto;html=1;exitDx=0;exitDy=0;entryX=0.75;entryY=1;entryDx=0;entryDy=0;labelBackgroundColor=none;fontColor=default;fillColor=#1ba1e2;strokeColor=#0098f0;" parent="1" source="YcFo5e7i3pAqQ6xfK6MD-67" target="YcFo5e7i3pAqQ6xfK6MD-9" edge="1">
          <mxGeometry relative="1" as="geometry">
            <Array as="points">
              <mxPoint x="620" y="670" />
            </Array>
          </mxGeometry>
        </mxCell>
        <mxCell id="m3mGF3cVDRf6Q7rcO0Uu-39" style="edgeStyle=orthogonalEdgeStyle;shape=connector;rounded=0;hachureGap=4;orthogonalLoop=1;jettySize=auto;html=1;exitX=1;exitY=0.5;exitDx=0;exitDy=0;entryX=1;entryY=0.5;entryDx=0;entryDy=0;labelBackgroundColor=default;strokeColor=#1ba1e2;fontFamily=Architects Daughter;fontSource=https%3A%2F%2Ffonts.googleapis.com%2Fcss%3Ffamily%3DArchitects%2BDaughter;fontSize=16;fontColor=default;endArrow=classic;" parent="1" source="m3mGF3cVDRf6Q7rcO0Uu-1" target="m3mGF3cVDRf6Q7rcO0Uu-3" edge="1">
          <mxGeometry relative="1" as="geometry">
            <Array as="points">
              <mxPoint x="1870" y="830" />
              <mxPoint x="1870" y="970" />
            </Array>
          </mxGeometry>
        </mxCell>
        <mxCell id="m3mGF3cVDRf6Q7rcO0Uu-1" value="MDR" style="rounded=0;whiteSpace=wrap;html=1;fontSize=21;fontFamily=Cambria;labelBackgroundColor=none;fillColor=#1ba1e2;fontColor=#ffffff;strokeColor=#1ba1e2;" parent="1" vertex="1">
          <mxGeometry x="1680" y="800" width="120" height="60" as="geometry" />
        </mxCell>
        <mxCell id="YcFo5e7i3pAqQ6xfK6MD-31" style="edgeStyle=orthogonalEdgeStyle;shape=connector;rounded=0;orthogonalLoop=1;jettySize=auto;html=1;entryX=0.75;entryY=1;entryDx=0;entryDy=0;labelBackgroundColor=default;strokeColor=#FFD800;fontFamily=Helvetica;fontSize=12;fontColor=default;endArrow=classic;startSize=8;endSize=8;elbow=vertical;fillColor=#e3c800;" parent="1" source="m3mGF3cVDRf6Q7rcO0Uu-3" target="YcFo5e7i3pAqQ6xfK6MD-24" edge="1">
          <mxGeometry relative="1" as="geometry" />
        </mxCell>
        <mxCell id="m3mGF3cVDRf6Q7rcO0Uu-3" value="EXTERNAL INSTRUCTION AND DATA MEMORY" style="rounded=0;whiteSpace=wrap;html=1;fontSize=21;fontFamily=Cambria;labelBackgroundColor=none;fillColor=#e3c800;fontColor=#000000;strokeColor=#B09500;" parent="1" vertex="1">
          <mxGeometry x="1350" y="940" width="430" height="60" as="geometry" />
        </mxCell>
        <mxCell id="m3mGF3cVDRf6Q7rcO0Uu-59" style="edgeStyle=orthogonalEdgeStyle;shape=connector;rounded=0;hachureGap=4;orthogonalLoop=1;jettySize=auto;html=1;labelBackgroundColor=default;strokeColor=default;fontFamily=Architects Daughter;fontSource=https%3A%2F%2Ffonts.googleapis.com%2Fcss%3Ffamily%3DArchitects%2BDaughter;fontSize=16;fontColor=default;endArrow=classic;" parent="1" source="m3mGF3cVDRf6Q7rcO0Uu-7" target="m3mGF3cVDRf6Q7rcO0Uu-55" edge="1">
          <mxGeometry relative="1" as="geometry" />
        </mxCell>
        <mxCell id="m3mGF3cVDRf6Q7rcO0Uu-7" value="IR" style="rounded=0;whiteSpace=wrap;html=1;fontSize=21;fontFamily=Cambria;labelBackgroundColor=none;" parent="1" vertex="1">
          <mxGeometry x="1680" y="650" width="120" height="60" as="geometry" />
        </mxCell>
        <mxCell id="YcFo5e7i3pAqQ6xfK6MD-38" style="edgeStyle=orthogonalEdgeStyle;shape=connector;rounded=0;orthogonalLoop=1;jettySize=auto;html=1;exitDx=0;exitDy=0;entryX=0.395;entryY=1.021;entryDx=0;entryDy=0;labelBackgroundColor=default;strokeColor=#6d8764;fontFamily=Helvetica;fontSize=12;fontColor=default;endArrow=classic;startSize=8;endSize=8;elbow=vertical;entryPerimeter=0;" parent="1" source="xbtp7WfYkMIQzA087Gdg-10" target="YcFo5e7i3pAqQ6xfK6MD-37" edge="1">
          <mxGeometry relative="1" as="geometry">
            <Array as="points">
              <mxPoint x="840" y="350" />
              <mxPoint x="840" y="527" />
            </Array>
          </mxGeometry>
        </mxCell>
        <mxCell id="m3mGF3cVDRf6Q7rcO0Uu-9" value="INC" style="rounded=0;whiteSpace=wrap;html=1;fontSize=21;fontFamily=Cambria;labelBackgroundColor=none;fillColor=#6d8764;fontColor=#ffffff;strokeColor=#3A5431;" parent="1" vertex="1">
          <mxGeometry x="880" y="320" width="120" height="60" as="geometry" />
        </mxCell>
        <mxCell id="m3mGF3cVDRf6Q7rcO0Uu-43" style="edgeStyle=orthogonalEdgeStyle;shape=connector;rounded=0;hachureGap=4;orthogonalLoop=1;jettySize=auto;html=1;exitDx=0;exitDy=0;entryX=0.75;entryY=1;entryDx=0;entryDy=0;labelBackgroundColor=default;strokeColor=#FF9900;fontFamily=Architects Daughter;fontSource=https%3A%2F%2Ffonts.googleapis.com%2Fcss%3Ffamily%3DArchitects%2BDaughter;fontSize=16;fontColor=default;endArrow=classic;endSize=8;startSize=8;fillColor=#fa6800;" parent="1" source="YcFo5e7i3pAqQ6xfK6MD-44" target="YcFo5e7i3pAqQ6xfK6MD-37" edge="1">
          <mxGeometry relative="1" as="geometry">
            <Array as="points">
              <mxPoint x="860" y="570" />
            </Array>
          </mxGeometry>
        </mxCell>
        <mxCell id="m3mGF3cVDRf6Q7rcO0Uu-12" value="A" style="rounded=0;whiteSpace=wrap;html=1;fontSize=21;fontFamily=Cambria;labelBackgroundColor=none;fillColor=#FF9900;fontColor=#000000;strokeColor=#C73500;" parent="1" vertex="1">
          <mxGeometry x="720" y="610" width="120" height="60" as="geometry" />
        </mxCell>
        <mxCell id="m3mGF3cVDRf6Q7rcO0Uu-51" style="edgeStyle=orthogonalEdgeStyle;shape=connector;rounded=0;hachureGap=4;orthogonalLoop=1;jettySize=auto;html=1;entryX=0.75;entryY=1;entryDx=0;entryDy=0;labelBackgroundColor=default;strokeColor=#cce5ff;fontFamily=Architects Daughter;fontSource=https%3A%2F%2Ffonts.googleapis.com%2Fcss%3Ffamily%3DArchitects%2BDaughter;fontSize=16;fontColor=default;endArrow=classic;" parent="1" target="YcFo5e7i3pAqQ6xfK6MD-47" edge="1">
          <mxGeometry relative="1" as="geometry">
            <mxPoint x="1120" y="750" as="sourcePoint" />
            <Array as="points">
              <mxPoint x="1120" y="750" />
              <mxPoint x="1120" y="790" />
            </Array>
          </mxGeometry>
        </mxCell>
        <mxCell id="m3mGF3cVDRf6Q7rcO0Uu-13" value="&lt;font color=&quot;#000000&quot;&gt;B&lt;/font&gt;" style="rounded=0;whiteSpace=wrap;html=1;fontSize=21;fontFamily=Cambria;labelBackgroundColor=none;fillColor=#cce5ff;strokeColor=#36393d;" parent="1" vertex="1">
          <mxGeometry x="720" y="720" width="120" height="60" as="geometry" />
        </mxCell>
        <mxCell id="m3mGF3cVDRf6Q7rcO0Uu-14" value="C" style="rounded=0;whiteSpace=wrap;html=1;fontSize=21;fontFamily=Cambria;labelBackgroundColor=none;fillColor=#d80073;strokeColor=#A50040;fontColor=#ffffff;" parent="1" vertex="1">
          <mxGeometry x="720" y="830" width="120" height="60" as="geometry" />
        </mxCell>
        <mxCell id="YcFo5e7i3pAqQ6xfK6MD-6" style="edgeStyle=orthogonalEdgeStyle;shape=connector;rounded=0;orthogonalLoop=1;jettySize=auto;html=1;exitDx=0;exitDy=0;labelBackgroundColor=default;strokeColor=#00FF00;fontFamily=Helvetica;fontSize=12;fontColor=default;endArrow=classic;startSize=8;endSize=8;elbow=vertical;entryX=0.25;entryY=1;entryDx=0;entryDy=0;" parent="1" source="YcFo5e7i3pAqQ6xfK6MD-26" target="YcFo5e7i3pAqQ6xfK6MD-24" edge="1">
          <mxGeometry relative="1" as="geometry">
            <mxPoint x="1620" y="810" as="targetPoint" />
            <Array as="points">
              <mxPoint x="1550" y="800" />
            </Array>
          </mxGeometry>
        </mxCell>
        <mxCell id="YcFo5e7i3pAqQ6xfK6MD-10" style="edgeStyle=orthogonalEdgeStyle;shape=connector;rounded=0;orthogonalLoop=1;jettySize=auto;html=1;entryX=0.25;entryY=1;entryDx=0;entryDy=0;labelBackgroundColor=default;strokeColor=#00FF00;fontFamily=Helvetica;fontSize=12;fontColor=default;endArrow=classic;startSize=8;endSize=8;elbow=vertical;exitDx=0;exitDy=0;fillColor=#60a917;" parent="1" source="YcFo5e7i3pAqQ6xfK6MD-19" target="YcFo5e7i3pAqQ6xfK6MD-9" edge="1">
          <mxGeometry relative="1" as="geometry">
            <Array as="points">
              <mxPoint x="620" y="450" />
              <mxPoint x="620" y="610" />
            </Array>
          </mxGeometry>
        </mxCell>
        <mxCell id="YcFo5e7i3pAqQ6xfK6MD-62" style="edgeStyle=orthogonalEdgeStyle;shape=connector;rounded=0;hachureGap=4;orthogonalLoop=1;jettySize=auto;html=1;exitX=0.5;exitY=0;exitDx=0;exitDy=0;labelBackgroundColor=default;strokeColor=#00FF00;fontFamily=Architects Daughter;fontSource=https%3A%2F%2Ffonts.googleapis.com%2Fcss%3Ffamily%3DArchitects%2BDaughter;fontSize=16;fontColor=default;endArrow=none;startSize=8;endSize=8;endFill=0;" parent="1" source="m3mGF3cVDRf6Q7rcO0Uu-18" edge="1">
          <mxGeometry relative="1" as="geometry">
            <mxPoint x="1550" y="540.3478260869565" as="targetPoint" />
          </mxGeometry>
        </mxCell>
        <mxCell id="m3mGF3cVDRf6Q7rcO0Uu-18" value="&lt;font style=&quot;font-size: 21px;&quot; face=&quot;Cambria&quot;&gt;ALU&lt;br&gt;&lt;/font&gt;" style="shape=trapezoid;perimeter=trapezoidPerimeter;whiteSpace=wrap;html=1;fixedSize=1;rotation=90;verticalAlign=middle;horizontal=0;labelBackgroundColor=none;fillColor=#60a917;strokeColor=#2D7600;fontColor=#ffffff;" parent="1" vertex="1">
          <mxGeometry x="1377.5" y="494.38" width="182.5" height="91.25" as="geometry" />
        </mxCell>
        <mxCell id="YcFo5e7i3pAqQ6xfK6MD-54" style="edgeStyle=orthogonalEdgeStyle;shape=connector;rounded=0;hachureGap=4;orthogonalLoop=1;jettySize=auto;html=1;entryX=0;entryY=1;entryDx=0;entryDy=0;labelBackgroundColor=default;strokeColor=#6a00ff;fontFamily=Architects Daughter;fontSource=https%3A%2F%2Ffonts.googleapis.com%2Fcss%3Ffamily%3DArchitects%2BDaughter;fontSize=16;fontColor=default;endArrow=classic;startSize=8;endSize=8;" parent="1" source="xbtp7WfYkMIQzA087Gdg-7" target="YcFo5e7i3pAqQ6xfK6MD-47" edge="1">
          <mxGeometry relative="1" as="geometry">
            <Array as="points">
              <mxPoint x="1250" y="700" />
            </Array>
          </mxGeometry>
        </mxCell>
        <mxCell id="m3mGF3cVDRf6Q7rcO0Uu-32" value="SP" style="rounded=0;whiteSpace=wrap;html=1;fontSize=21;fontFamily=Cambria;labelBackgroundColor=none;fillColor=#6a00ff;fontColor=#ffffff;strokeColor=#3700CC;" parent="1" vertex="1">
          <mxGeometry x="1190" y="160" width="120" height="60" as="geometry" />
        </mxCell>
        <mxCell id="xbtp7WfYkMIQzA087Gdg-16" style="edgeStyle=orthogonalEdgeStyle;shape=connector;rounded=0;orthogonalLoop=1;jettySize=auto;html=1;entryX=0.75;entryY=1;entryDx=0;entryDy=0;labelBackgroundColor=default;strokeColor=#647687;fontFamily=Helvetica;fontSize=12;fontColor=default;endArrow=classic;startSize=8;endSize=8;" edge="1" parent="1" source="m3mGF3cVDRf6Q7rcO0Uu-52" target="xbtp7WfYkMIQzA087Gdg-14">
          <mxGeometry relative="1" as="geometry" />
        </mxCell>
        <mxCell id="m3mGF3cVDRf6Q7rcO0Uu-52" value="DEC" style="rounded=0;whiteSpace=wrap;html=1;fontSize=21;fontFamily=Cambria;labelBackgroundColor=none;fillColor=#647687;fontColor=#ffffff;strokeColor=#314354;" parent="1" vertex="1">
          <mxGeometry x="890" y="190" width="120" height="60" as="geometry" />
        </mxCell>
        <mxCell id="m3mGF3cVDRf6Q7rcO0Uu-55" value="&lt;font color=&quot;#000000&quot; style=&quot;font-size: 21px;&quot;&gt;CONTROL UNIT&lt;/font&gt;" style="swimlane;fontStyle=0;childLayout=stackLayout;horizontal=1;startSize=240;horizontalStack=0;resizeParent=1;resizeParentMax=0;resizeLast=0;collapsible=1;marginBottom=0;whiteSpace=wrap;html=1;hachureGap=4;fontFamily=Cambria;fontSize=23;fillColor=#bac8d3;strokeColor=#23445d;" parent="1" vertex="1">
          <mxGeometry x="1645" y="110" width="190" height="270" as="geometry">
            <mxRectangle x="1660" y="250" width="180" height="100" as="alternateBounds" />
          </mxGeometry>
        </mxCell>
        <mxCell id="m3mGF3cVDRf6Q7rcO0Uu-56" value="&lt;font face=&quot;Cambria&quot;&gt;opcode | dst | src 1 | src 2&lt;/font&gt;" style="text;strokeColor=none;fillColor=none;align=left;verticalAlign=middle;spacingLeft=4;spacingRight=4;overflow=hidden;points=[[0,0.5],[1,0.5]];portConstraint=eastwest;rotatable=0;whiteSpace=wrap;html=1;fontSize=16;fontFamily=Architects Daughter;fontColor=default;" parent="m3mGF3cVDRf6Q7rcO0Uu-55" vertex="1">
          <mxGeometry y="240" width="190" height="30" as="geometry" />
        </mxCell>
        <mxCell id="m3mGF3cVDRf6Q7rcO0Uu-42" value="" style="endArrow=classic;html=1;rounded=0;labelBackgroundColor=default;hachureGap=4;strokeColor=#1ba1e2;fontFamily=Architects Daughter;fontSource=https%3A%2F%2Ffonts.googleapis.com%2Fcss%3Ffamily%3DArchitects%2BDaughter;fontSize=16;fontColor=default;shape=connector;edgeStyle=orthogonalEdgeStyle;exitDx=0;exitDy=0;endSize=8;startSize=8;" parent="1" source="YcFo5e7i3pAqQ6xfK6MD-87" edge="1">
          <mxGeometry width="50" height="50" relative="1" as="geometry">
            <mxPoint x="1870" y="970" as="sourcePoint" />
            <mxPoint x="880" y="550" as="targetPoint" />
            <Array as="points">
              <mxPoint x="1870" y="90" />
              <mxPoint x="820" y="90" />
              <mxPoint x="820" y="550" />
            </Array>
          </mxGeometry>
        </mxCell>
        <mxCell id="YcFo5e7i3pAqQ6xfK6MD-11" style="edgeStyle=orthogonalEdgeStyle;shape=connector;rounded=0;orthogonalLoop=1;jettySize=auto;html=1;exitX=0.5;exitY=0;exitDx=0;exitDy=0;entryX=0;entryY=0.5;entryDx=0;entryDy=0;labelBackgroundColor=default;strokeColor=#ff9900;fontFamily=Helvetica;fontSize=12;fontColor=default;endArrow=classic;startSize=8;endSize=8;elbow=vertical;" parent="1" source="YcFo5e7i3pAqQ6xfK6MD-9" target="m3mGF3cVDRf6Q7rcO0Uu-12" edge="1">
          <mxGeometry relative="1" as="geometry" />
        </mxCell>
        <mxCell id="YcFo5e7i3pAqQ6xfK6MD-9" value="&lt;font style=&quot;font-size: 21px;&quot; face=&quot;Cambria&quot;&gt;MUX&lt;br&gt;A&lt;br&gt;&lt;/font&gt;" style="shape=trapezoid;perimeter=trapezoidPerimeter;whiteSpace=wrap;html=1;fixedSize=1;fontFamily=Helvetica;fontSize=12;fontColor=default;rotation=90;horizontal=0;strokeColor=#FF9900;" parent="1" vertex="1">
          <mxGeometry x="610" y="610" width="120" height="60" as="geometry" />
        </mxCell>
        <mxCell id="YcFo5e7i3pAqQ6xfK6MD-18" value="" style="endArrow=classic;html=1;rounded=0;labelBackgroundColor=default;strokeColor=#00FF00;fontFamily=Helvetica;fontSize=12;fontColor=default;startSize=8;endSize=8;shape=connector;elbow=vertical;edgeStyle=orthogonalEdgeStyle;entryX=0;entryY=0.5;entryDx=0;entryDy=0;" parent="1" target="m3mGF3cVDRf6Q7rcO0Uu-13" edge="1">
          <mxGeometry width="50" height="50" relative="1" as="geometry">
            <mxPoint x="620" y="450" as="sourcePoint" />
            <mxPoint x="590" y="760" as="targetPoint" />
            <Array as="points">
              <mxPoint x="620" y="420" />
              <mxPoint x="580" y="420" />
              <mxPoint x="580" y="750" />
            </Array>
          </mxGeometry>
        </mxCell>
        <mxCell id="YcFo5e7i3pAqQ6xfK6MD-20" value="" style="edgeStyle=orthogonalEdgeStyle;shape=connector;rounded=0;orthogonalLoop=1;jettySize=auto;html=1;entryDx=0;entryDy=0;labelBackgroundColor=default;strokeColor=#00FF00;fontFamily=Helvetica;fontSize=12;fontColor=default;endArrow=none;startSize=8;endSize=8;elbow=vertical;exitDx=0;exitDy=0;fillColor=#60a917;endFill=0;" parent="1" source="YcFo5e7i3pAqQ6xfK6MD-32" target="YcFo5e7i3pAqQ6xfK6MD-19" edge="1">
          <mxGeometry relative="1" as="geometry">
            <mxPoint x="1510" y="540" as="sourcePoint" />
            <mxPoint x="640" y="610" as="targetPoint" />
            <Array as="points">
              <mxPoint x="860" y="420" />
              <mxPoint x="620" y="420" />
            </Array>
          </mxGeometry>
        </mxCell>
        <mxCell id="YcFo5e7i3pAqQ6xfK6MD-19" value="" style="shape=waypoint;sketch=0;size=6;pointerEvents=1;points=[];fillColor=#00FF00;resizable=0;rotatable=0;perimeter=centerPerimeter;snapToPoint=1;fontFamily=Helvetica;fontSize=12;fontColor=#ffffff;strokeColor=#00FF00;" parent="1" vertex="1">
          <mxGeometry x="610" y="410" width="20" height="20" as="geometry" />
        </mxCell>
        <mxCell id="YcFo5e7i3pAqQ6xfK6MD-63" style="edgeStyle=orthogonalEdgeStyle;shape=connector;rounded=0;hachureGap=4;orthogonalLoop=1;jettySize=auto;html=1;labelBackgroundColor=default;strokeColor=#00FF00;fontFamily=Architects Daughter;fontSource=https%3A%2F%2Ffonts.googleapis.com%2Fcss%3Ffamily%3DArchitects%2BDaughter;fontSize=16;fontColor=default;endArrow=none;startSize=8;endSize=8;endFill=0;" parent="1" source="YcFo5e7i3pAqQ6xfK6MD-21" target="YcFo5e7i3pAqQ6xfK6MD-32" edge="1">
          <mxGeometry relative="1" as="geometry">
            <Array as="points">
              <mxPoint x="1550" y="420" />
            </Array>
          </mxGeometry>
        </mxCell>
        <mxCell id="YcFo5e7i3pAqQ6xfK6MD-21" value="" style="shape=waypoint;sketch=0;size=6;pointerEvents=1;points=[];fillColor=#00FF00;resizable=0;rotatable=0;perimeter=centerPerimeter;snapToPoint=1;fontFamily=Helvetica;fontSize=12;fontColor=#ffffff;strokeColor=#00FF00;" parent="1" vertex="1">
          <mxGeometry x="1540" y="530" width="20" height="20" as="geometry" />
        </mxCell>
        <mxCell id="YcFo5e7i3pAqQ6xfK6MD-25" style="edgeStyle=orthogonalEdgeStyle;shape=connector;rounded=0;orthogonalLoop=1;jettySize=auto;html=1;exitX=0.5;exitY=0;exitDx=0;exitDy=0;entryX=0;entryY=0.5;entryDx=0;entryDy=0;labelBackgroundColor=default;strokeColor=default;fontFamily=Helvetica;fontSize=12;fontColor=default;endArrow=classic;startSize=8;endSize=8;elbow=vertical;" parent="1" source="YcFo5e7i3pAqQ6xfK6MD-24" target="m3mGF3cVDRf6Q7rcO0Uu-1" edge="1">
          <mxGeometry relative="1" as="geometry" />
        </mxCell>
        <mxCell id="YcFo5e7i3pAqQ6xfK6MD-24" value="&lt;font style=&quot;font-size: 21px;&quot; face=&quot;Cambria&quot;&gt;MUX&lt;br&gt;MDR&lt;br&gt;&lt;/font&gt;" style="shape=trapezoid;perimeter=trapezoidPerimeter;whiteSpace=wrap;html=1;fixedSize=1;fontFamily=Helvetica;fontSize=12;fontColor=default;rotation=90;horizontal=0;gradientColor=none;shadow=0;perimeterSpacing=0;strokeColor=#1ba1e2;" parent="1" vertex="1">
          <mxGeometry x="1560" y="800" width="120" height="60" as="geometry" />
        </mxCell>
        <mxCell id="YcFo5e7i3pAqQ6xfK6MD-27" value="" style="edgeStyle=orthogonalEdgeStyle;shape=connector;rounded=0;orthogonalLoop=1;jettySize=auto;html=1;exitDx=0;exitDy=0;labelBackgroundColor=default;strokeColor=#00FF00;fontFamily=Helvetica;fontSize=12;fontColor=default;endArrow=none;startSize=8;endSize=8;elbow=vertical;entryDx=0;entryDy=0;endFill=0;" parent="1" source="YcFo5e7i3pAqQ6xfK6MD-21" target="YcFo5e7i3pAqQ6xfK6MD-26" edge="1">
          <mxGeometry relative="1" as="geometry">
            <mxPoint x="1550" y="540" as="sourcePoint" />
            <mxPoint x="1590" y="800" as="targetPoint" />
            <Array as="points">
              <mxPoint x="1550" y="610" />
              <mxPoint x="1550" y="610" />
            </Array>
          </mxGeometry>
        </mxCell>
        <mxCell id="YcFo5e7i3pAqQ6xfK6MD-82" style="edgeStyle=orthogonalEdgeStyle;shape=connector;rounded=0;hachureGap=4;orthogonalLoop=1;jettySize=auto;html=1;entryX=0.935;entryY=1.003;entryDx=0;entryDy=0;entryPerimeter=0;labelBackgroundColor=default;strokeColor=#00FF00;fontFamily=Architects Daughter;fontSource=https%3A%2F%2Ffonts.googleapis.com%2Fcss%3Ffamily%3DArchitects%2BDaughter;fontSize=16;fontColor=default;endArrow=classic;startSize=8;endSize=8;" parent="1" source="YcFo5e7i3pAqQ6xfK6MD-26" target="YcFo5e7i3pAqQ6xfK6MD-59" edge="1">
          <mxGeometry relative="1" as="geometry" />
        </mxCell>
        <mxCell id="YcFo5e7i3pAqQ6xfK6MD-26" value="" style="shape=waypoint;sketch=0;size=6;pointerEvents=1;points=[];fillColor=#00FF00;resizable=0;rotatable=0;perimeter=centerPerimeter;snapToPoint=1;fontFamily=Helvetica;fontSize=12;fontColor=#ffffff;strokeColor=#00FF00;" parent="1" vertex="1">
          <mxGeometry x="1540" y="690" width="20" height="20" as="geometry" />
        </mxCell>
        <mxCell id="YcFo5e7i3pAqQ6xfK6MD-39" style="edgeStyle=orthogonalEdgeStyle;shape=connector;rounded=0;orthogonalLoop=1;jettySize=auto;html=1;exitX=0.5;exitY=0;exitDx=0;exitDy=0;entryX=0;entryY=0.5;entryDx=0;entryDy=0;labelBackgroundColor=default;strokeColor=#a20025;fontFamily=Helvetica;fontSize=12;fontColor=default;endArrow=classic;startSize=8;endSize=8;elbow=vertical;" parent="1" source="YcFo5e7i3pAqQ6xfK6MD-37" target="ucayvBUJVL6Ij2z3_t0v-2" edge="1">
          <mxGeometry relative="1" as="geometry" />
        </mxCell>
        <mxCell id="YcFo5e7i3pAqQ6xfK6MD-37" value="&lt;font style=&quot;font-size: 21px;&quot; face=&quot;Cambria&quot;&gt;MUX&lt;br&gt;PC&lt;br&gt;&lt;/font&gt;" style="shape=trapezoid;perimeter=trapezoidPerimeter;whiteSpace=wrap;html=1;fixedSize=1;fontFamily=Helvetica;fontSize=12;fontColor=default;rotation=90;horizontal=0;strokeColor=#a20025;" parent="1" vertex="1">
          <mxGeometry x="850" y="510" width="120" height="60" as="geometry" />
        </mxCell>
        <mxCell id="YcFo5e7i3pAqQ6xfK6MD-42" style="edgeStyle=orthogonalEdgeStyle;shape=connector;rounded=0;orthogonalLoop=1;jettySize=auto;html=1;entryX=0.25;entryY=1;entryDx=0;entryDy=0;labelBackgroundColor=default;strokeColor=#00FF00;fontFamily=Helvetica;fontSize=12;fontColor=default;endArrow=classic;startSize=8;endSize=8;elbow=vertical;" parent="1" source="YcFo5e7i3pAqQ6xfK6MD-32" target="YcFo5e7i3pAqQ6xfK6MD-37" edge="1">
          <mxGeometry relative="1" as="geometry">
            <Array as="points">
              <mxPoint x="860" y="450" />
              <mxPoint x="860" y="510" />
            </Array>
          </mxGeometry>
        </mxCell>
        <mxCell id="YcFo5e7i3pAqQ6xfK6MD-32" value="" style="shape=waypoint;sketch=0;size=6;pointerEvents=1;points=[];fillColor=#00FF00;resizable=0;rotatable=0;perimeter=centerPerimeter;snapToPoint=1;fontFamily=Helvetica;fontSize=12;fontColor=#ffffff;strokeColor=#00FF00;" parent="1" vertex="1">
          <mxGeometry x="850" y="410" width="20" height="20" as="geometry" />
        </mxCell>
        <mxCell id="YcFo5e7i3pAqQ6xfK6MD-45" value="" style="edgeStyle=orthogonalEdgeStyle;shape=connector;rounded=0;hachureGap=4;orthogonalLoop=1;jettySize=auto;html=1;exitX=1;exitY=0.5;exitDx=0;exitDy=0;entryDx=0;entryDy=0;labelBackgroundColor=default;strokeColor=#FF9900;fontFamily=Architects Daughter;fontSource=https%3A%2F%2Ffonts.googleapis.com%2Fcss%3Ffamily%3DArchitects%2BDaughter;fontSize=16;fontColor=default;endArrow=none;endSize=8;startSize=8;fillColor=#fa6800;endFill=0;" parent="1" source="m3mGF3cVDRf6Q7rcO0Uu-12" target="YcFo5e7i3pAqQ6xfK6MD-44" edge="1">
          <mxGeometry relative="1" as="geometry">
            <mxPoint x="840" y="640" as="sourcePoint" />
            <mxPoint x="880" y="570" as="targetPoint" />
            <Array as="points">
              <mxPoint x="860" y="640" />
            </Array>
          </mxGeometry>
        </mxCell>
        <mxCell id="YcFo5e7i3pAqQ6xfK6MD-52" style="edgeStyle=orthogonalEdgeStyle;shape=connector;rounded=0;hachureGap=4;orthogonalLoop=1;jettySize=auto;html=1;entryX=0.5;entryY=1;entryDx=0;entryDy=0;labelBackgroundColor=default;strokeColor=#FF9900;fontFamily=Architects Daughter;fontSource=https%3A%2F%2Ffonts.googleapis.com%2Fcss%3Ffamily%3DArchitects%2BDaughter;fontSize=16;fontColor=default;endArrow=classic;startSize=8;endSize=8;" parent="1" source="YcFo5e7i3pAqQ6xfK6MD-70" target="YcFo5e7i3pAqQ6xfK6MD-47" edge="1">
          <mxGeometry relative="1" as="geometry">
            <Array as="points">
              <mxPoint x="1220" y="640" />
              <mxPoint x="1220" y="760" />
            </Array>
          </mxGeometry>
        </mxCell>
        <mxCell id="YcFo5e7i3pAqQ6xfK6MD-44" value="" style="shape=waypoint;sketch=0;size=6;pointerEvents=1;points=[];fillColor=none;resizable=0;rotatable=0;perimeter=centerPerimeter;snapToPoint=1;fontFamily=Helvetica;fontSize=12;fontColor=#FF4400;strokeColor=#FF9900;" parent="1" vertex="1">
          <mxGeometry x="850" y="630" width="20" height="20" as="geometry" />
        </mxCell>
        <mxCell id="YcFo5e7i3pAqQ6xfK6MD-53" style="edgeStyle=orthogonalEdgeStyle;shape=connector;rounded=0;hachureGap=4;orthogonalLoop=1;jettySize=auto;html=1;exitX=0.5;exitY=0;exitDx=0;exitDy=0;entryX=0;entryY=0.5;entryDx=0;entryDy=0;labelBackgroundColor=default;strokeColor=#76608a;fontFamily=Architects Daughter;fontSource=https%3A%2F%2Ffonts.googleapis.com%2Fcss%3Ffamily%3DArchitects%2BDaughter;fontSize=16;fontColor=default;endArrow=classic;startSize=8;endSize=8;" parent="1" source="YcFo5e7i3pAqQ6xfK6MD-47" target="ucayvBUJVL6Ij2z3_t0v-1" edge="1">
          <mxGeometry relative="1" as="geometry" />
        </mxCell>
        <mxCell id="YcFo5e7i3pAqQ6xfK6MD-47" value="&lt;font style=&quot;font-size: 21px;&quot; face=&quot;Cambria&quot;&gt;MUX&lt;br&gt;MAR&lt;br&gt;&lt;/font&gt;" style="shape=trapezoid;perimeter=trapezoidPerimeter;whiteSpace=wrap;html=1;fixedSize=1;fontFamily=Helvetica;fontSize=12;fontColor=default;rotation=90;horizontal=0;strokeColor=#D3B0FF;" parent="1" vertex="1">
          <mxGeometry x="1250" y="730" width="120" height="60" as="geometry" />
        </mxCell>
        <mxCell id="YcFo5e7i3pAqQ6xfK6MD-56" value="" style="edgeStyle=orthogonalEdgeStyle;rounded=0;orthogonalLoop=1;jettySize=auto;html=1;entryDx=0;entryDy=0;labelBackgroundColor=none;fontColor=default;endSize=8;startSize=8;strokeColor=#CC0000;endArrow=none;endFill=0;" parent="1" source="ucayvBUJVL6Ij2z3_t0v-2" target="YcFo5e7i3pAqQ6xfK6MD-55" edge="1">
          <mxGeometry relative="1" as="geometry">
            <mxPoint x="1090" y="540" as="sourcePoint" />
            <mxPoint x="1280" y="730" as="targetPoint" />
            <Array as="points" />
          </mxGeometry>
        </mxCell>
        <mxCell id="xbtp7WfYkMIQzA087Gdg-13" style="edgeStyle=orthogonalEdgeStyle;shape=connector;rounded=0;orthogonalLoop=1;jettySize=auto;html=1;entryX=0.75;entryY=0;entryDx=0;entryDy=0;labelBackgroundColor=default;strokeColor=#a20025;fontFamily=Helvetica;fontSize=12;fontColor=default;endArrow=classic;startSize=8;endSize=8;" edge="1" parent="1" source="YcFo5e7i3pAqQ6xfK6MD-55" target="xbtp7WfYkMIQzA087Gdg-3">
          <mxGeometry relative="1" as="geometry">
            <Array as="points">
              <mxPoint x="1160" y="380" />
            </Array>
          </mxGeometry>
        </mxCell>
        <mxCell id="YcFo5e7i3pAqQ6xfK6MD-55" value="" style="shape=waypoint;sketch=0;size=6;pointerEvents=1;points=[];fillColor=none;resizable=0;rotatable=0;perimeter=centerPerimeter;snapToPoint=1;fontFamily=Architects Daughter;fontSource=https%3A%2F%2Ffonts.googleapis.com%2Fcss%3Ffamily%3DArchitects%2BDaughter;fontSize=16;fontColor=default;strokeColor=#CC0000;" parent="1" vertex="1">
          <mxGeometry x="1150" y="530" width="20" height="20" as="geometry" />
        </mxCell>
        <mxCell id="xbtp7WfYkMIQzA087Gdg-5" style="edgeStyle=none;curved=1;rounded=0;orthogonalLoop=1;jettySize=auto;html=1;exitX=0.5;exitY=0;exitDx=0;exitDy=0;fontSize=12;startSize=8;endSize=8;strokeColor=#60a917;" edge="1" parent="1" source="YcFo5e7i3pAqQ6xfK6MD-57">
          <mxGeometry relative="1" as="geometry">
            <mxPoint x="1420" y="490" as="targetPoint" />
          </mxGeometry>
        </mxCell>
        <mxCell id="YcFo5e7i3pAqQ6xfK6MD-57" value="&lt;font style=&quot;font-size: 21px;&quot; face=&quot;Cambria&quot;&gt;MUX&lt;br&gt;ALU1&lt;br&gt;&lt;/font&gt;" style="shape=trapezoid;perimeter=trapezoidPerimeter;whiteSpace=wrap;html=1;fixedSize=1;fontFamily=Helvetica;fontSize=12;fontColor=default;rotation=90;horizontal=0;strokeColor=#00FF00;" parent="1" vertex="1">
          <mxGeometry x="1300" y="460" width="120" height="60" as="geometry" />
        </mxCell>
        <mxCell id="YcFo5e7i3pAqQ6xfK6MD-66" style="edgeStyle=orthogonalEdgeStyle;shape=connector;rounded=0;hachureGap=4;orthogonalLoop=1;jettySize=auto;html=1;exitX=0.5;exitY=0;exitDx=0;exitDy=0;labelBackgroundColor=default;strokeColor=#60a917;fontFamily=Architects Daughter;fontSource=https%3A%2F%2Ffonts.googleapis.com%2Fcss%3Ffamily%3DArchitects%2BDaughter;fontSize=16;fontColor=default;endArrow=classic;startSize=8;endSize=8;" parent="1" source="YcFo5e7i3pAqQ6xfK6MD-59" edge="1">
          <mxGeometry relative="1" as="geometry">
            <mxPoint x="1420" y="609.913043478261" as="targetPoint" />
          </mxGeometry>
        </mxCell>
        <mxCell id="YcFo5e7i3pAqQ6xfK6MD-59" value="&lt;font style=&quot;font-size: 21px;&quot; face=&quot;Cambria&quot;&gt;MUX&lt;br&gt;ALU2&lt;br&gt;&lt;/font&gt;" style="shape=trapezoid;perimeter=trapezoidPerimeter;whiteSpace=wrap;html=1;fixedSize=1;fontFamily=Helvetica;fontSize=12;fontColor=default;rotation=90;horizontal=0;strokeColor=#00FF00;" parent="1" vertex="1">
          <mxGeometry x="1300" y="580" width="120" height="60" as="geometry" />
        </mxCell>
        <mxCell id="YcFo5e7i3pAqQ6xfK6MD-69" style="edgeStyle=orthogonalEdgeStyle;shape=connector;rounded=0;hachureGap=4;orthogonalLoop=1;jettySize=auto;html=1;entryX=0.5;entryY=1;entryDx=0;entryDy=0;labelBackgroundColor=default;strokeColor=#1ba1e2;fontFamily=Architects Daughter;fontSource=https%3A%2F%2Ffonts.googleapis.com%2Fcss%3Ffamily%3DArchitects%2BDaughter;fontSize=16;fontColor=default;endArrow=classic;startSize=8;endSize=8;" parent="1" source="YcFo5e7i3pAqQ6xfK6MD-67" target="YcFo5e7i3pAqQ6xfK6MD-59" edge="1">
          <mxGeometry relative="1" as="geometry">
            <Array as="points">
              <mxPoint x="1200" y="610" />
            </Array>
          </mxGeometry>
        </mxCell>
        <mxCell id="xbtp7WfYkMIQzA087Gdg-21" style="edgeStyle=orthogonalEdgeStyle;shape=connector;rounded=0;orthogonalLoop=1;jettySize=auto;html=1;entryX=0.433;entryY=0.783;entryDx=0;entryDy=0;entryPerimeter=0;labelBackgroundColor=default;strokeColor=#1ba1e2;fontFamily=Helvetica;fontSize=12;fontColor=default;endArrow=none;startSize=8;endSize=8;endFill=0;" edge="1" parent="1" source="YcFo5e7i3pAqQ6xfK6MD-67" target="YcFo5e7i3pAqQ6xfK6MD-87">
          <mxGeometry relative="1" as="geometry" />
        </mxCell>
        <mxCell id="YcFo5e7i3pAqQ6xfK6MD-67" value="" style="shape=waypoint;sketch=0;size=6;pointerEvents=1;points=[];fillColor=none;resizable=0;rotatable=0;perimeter=centerPerimeter;snapToPoint=1;fontFamily=Architects Daughter;fontSource=https%3A%2F%2Ffonts.googleapis.com%2Fcss%3Ffamily%3DArchitects%2BDaughter;fontSize=16;fontColor=default;strokeColor=#1ba1e2;" parent="1" vertex="1">
          <mxGeometry x="1190" y="1030" width="20" height="20" as="geometry" />
        </mxCell>
        <mxCell id="YcFo5e7i3pAqQ6xfK6MD-71" value="" style="edgeStyle=orthogonalEdgeStyle;shape=connector;rounded=0;hachureGap=4;orthogonalLoop=1;jettySize=auto;html=1;entryDx=0;entryDy=0;labelBackgroundColor=default;strokeColor=#FF9900;fontFamily=Architects Daughter;fontSource=https%3A%2F%2Ffonts.googleapis.com%2Fcss%3Ffamily%3DArchitects%2BDaughter;fontSize=16;fontColor=default;endArrow=none;startSize=8;endSize=8;endFill=0;" parent="1" source="YcFo5e7i3pAqQ6xfK6MD-44" target="YcFo5e7i3pAqQ6xfK6MD-70" edge="1">
          <mxGeometry relative="1" as="geometry">
            <mxPoint x="860" y="640" as="sourcePoint" />
            <mxPoint x="1280" y="760" as="targetPoint" />
            <Array as="points" />
          </mxGeometry>
        </mxCell>
        <mxCell id="YcFo5e7i3pAqQ6xfK6MD-72" style="edgeStyle=orthogonalEdgeStyle;shape=connector;rounded=0;hachureGap=4;orthogonalLoop=1;jettySize=auto;html=1;entryX=0.75;entryY=1;entryDx=0;entryDy=0;labelBackgroundColor=default;strokeColor=#FF9900;fontFamily=Architects Daughter;fontSource=https%3A%2F%2Ffonts.googleapis.com%2Fcss%3Ffamily%3DArchitects%2BDaughter;fontSize=16;fontColor=default;endArrow=classic;startSize=8;endSize=8;" parent="1" source="YcFo5e7i3pAqQ6xfK6MD-70" target="YcFo5e7i3pAqQ6xfK6MD-59" edge="1">
          <mxGeometry relative="1" as="geometry" />
        </mxCell>
        <mxCell id="YcFo5e7i3pAqQ6xfK6MD-92" style="edgeStyle=orthogonalEdgeStyle;shape=connector;rounded=0;hachureGap=4;orthogonalLoop=1;jettySize=auto;html=1;entryX=0.75;entryY=1;entryDx=0;entryDy=0;labelBackgroundColor=default;strokeColor=#FF9900;fontFamily=Architects Daughter;fontSource=https%3A%2F%2Ffonts.googleapis.com%2Fcss%3Ffamily%3DArchitects%2BDaughter;fontSize=16;fontColor=default;endArrow=classic;startSize=8;endSize=8;" parent="1" source="YcFo5e7i3pAqQ6xfK6MD-70" target="YcFo5e7i3pAqQ6xfK6MD-57" edge="1">
          <mxGeometry relative="1" as="geometry">
            <Array as="points">
              <mxPoint x="1220" y="520" />
            </Array>
          </mxGeometry>
        </mxCell>
        <mxCell id="YcFo5e7i3pAqQ6xfK6MD-70" value="" style="shape=waypoint;sketch=0;size=6;pointerEvents=1;points=[];fillColor=none;resizable=0;rotatable=0;perimeter=centerPerimeter;snapToPoint=1;fontFamily=Architects Daughter;fontSource=https%3A%2F%2Ffonts.googleapis.com%2Fcss%3Ffamily%3DArchitects%2BDaughter;fontSize=16;fontColor=default;strokeColor=#FF9900;" parent="1" vertex="1">
          <mxGeometry x="1210" y="630" width="20" height="20" as="geometry" />
        </mxCell>
        <mxCell id="YcFo5e7i3pAqQ6xfK6MD-74" value="" style="edgeStyle=orthogonalEdgeStyle;shape=connector;rounded=0;hachureGap=4;orthogonalLoop=1;jettySize=auto;html=1;entryDx=0;entryDy=0;labelBackgroundColor=default;strokeColor=#cce5ff;fontFamily=Architects Daughter;fontSource=https%3A%2F%2Ffonts.googleapis.com%2Fcss%3Ffamily%3DArchitects%2BDaughter;fontSize=16;fontColor=default;endArrow=none;exitX=1;exitY=0.5;exitDx=0;exitDy=0;endFill=0;" parent="1" source="m3mGF3cVDRf6Q7rcO0Uu-13" target="YcFo5e7i3pAqQ6xfK6MD-73" edge="1">
          <mxGeometry relative="1" as="geometry">
            <mxPoint x="840" y="750" as="sourcePoint" />
            <mxPoint x="1280" y="790" as="targetPoint" />
            <Array as="points" />
          </mxGeometry>
        </mxCell>
        <mxCell id="YcFo5e7i3pAqQ6xfK6MD-75" style="edgeStyle=orthogonalEdgeStyle;shape=connector;rounded=0;hachureGap=4;orthogonalLoop=1;jettySize=auto;html=1;labelBackgroundColor=default;strokeColor=#cce5ff;fontFamily=Architects Daughter;fontSource=https%3A%2F%2Ffonts.googleapis.com%2Fcss%3Ffamily%3DArchitects%2BDaughter;fontSize=16;fontColor=default;endArrow=classic;startSize=8;endSize=8;" parent="1" source="YcFo5e7i3pAqQ6xfK6MD-73" edge="1">
          <mxGeometry relative="1" as="geometry">
            <mxPoint x="1330" y="590" as="targetPoint" />
            <Array as="points">
              <mxPoint x="1120" y="590" />
              <mxPoint x="1330" y="590" />
            </Array>
          </mxGeometry>
        </mxCell>
        <mxCell id="YcFo5e7i3pAqQ6xfK6MD-73" value="" style="shape=waypoint;sketch=0;size=6;pointerEvents=1;points=[];fillColor=none;resizable=0;rotatable=0;perimeter=centerPerimeter;snapToPoint=1;fontFamily=Architects Daughter;fontSource=https%3A%2F%2Ffonts.googleapis.com%2Fcss%3Ffamily%3DArchitects%2BDaughter;fontSize=16;fontColor=default;strokeColor=#cce5ff;" parent="1" vertex="1">
          <mxGeometry x="1110" y="740" width="20" height="20" as="geometry" />
        </mxCell>
        <mxCell id="YcFo5e7i3pAqQ6xfK6MD-77" value="" style="edgeStyle=orthogonalEdgeStyle;rounded=0;orthogonalLoop=1;jettySize=auto;html=1;labelBackgroundColor=none;fontColor=default;entryDx=0;entryDy=0;strokeColor=#d80073;endArrow=none;endFill=0;" parent="1" source="m3mGF3cVDRf6Q7rcO0Uu-14" target="YcFo5e7i3pAqQ6xfK6MD-76" edge="1">
          <mxGeometry relative="1" as="geometry">
            <mxPoint x="840" y="860" as="sourcePoint" />
            <mxPoint x="1280" y="820" as="targetPoint" />
            <Array as="points" />
          </mxGeometry>
        </mxCell>
        <mxCell id="YcFo5e7i3pAqQ6xfK6MD-78" style="edgeStyle=orthogonalEdgeStyle;shape=connector;rounded=0;hachureGap=4;orthogonalLoop=1;jettySize=auto;html=1;entryX=1;entryY=1;entryDx=0;entryDy=0;labelBackgroundColor=default;strokeColor=#d80073;fontFamily=Architects Daughter;fontSource=https%3A%2F%2Ffonts.googleapis.com%2Fcss%3Ffamily%3DArchitects%2BDaughter;fontSize=16;fontColor=default;endArrow=classic;startSize=8;endSize=8;" parent="1" source="YcFo5e7i3pAqQ6xfK6MD-76" target="YcFo5e7i3pAqQ6xfK6MD-47" edge="1">
          <mxGeometry relative="1" as="geometry">
            <Array as="points">
              <mxPoint x="1260" y="820" />
              <mxPoint x="1260" y="820" />
            </Array>
          </mxGeometry>
        </mxCell>
        <mxCell id="YcFo5e7i3pAqQ6xfK6MD-86" style="edgeStyle=orthogonalEdgeStyle;shape=connector;rounded=0;hachureGap=4;orthogonalLoop=1;jettySize=auto;html=1;entryX=0.162;entryY=1.013;entryDx=0;entryDy=0;entryPerimeter=0;labelBackgroundColor=default;strokeColor=#d80073;fontFamily=Architects Daughter;fontSource=https%3A%2F%2Ffonts.googleapis.com%2Fcss%3Ffamily%3DArchitects%2BDaughter;fontSize=16;fontColor=default;endArrow=classic;startSize=8;endSize=8;" parent="1" source="YcFo5e7i3pAqQ6xfK6MD-95" target="YcFo5e7i3pAqQ6xfK6MD-59" edge="1">
          <mxGeometry relative="1" as="geometry">
            <Array as="points">
              <mxPoint x="1140" y="569" />
            </Array>
          </mxGeometry>
        </mxCell>
        <mxCell id="YcFo5e7i3pAqQ6xfK6MD-76" value="" style="shape=waypoint;sketch=0;size=6;pointerEvents=1;points=[];fillColor=none;resizable=0;rotatable=0;perimeter=centerPerimeter;snapToPoint=1;fontFamily=Architects Daughter;fontSource=https%3A%2F%2Ffonts.googleapis.com%2Fcss%3Ffamily%3DArchitects%2BDaughter;fontSize=16;fontColor=default;strokeColor=#d80073;" parent="1" vertex="1">
          <mxGeometry x="1130" y="810" width="20" height="20" as="geometry" />
        </mxCell>
        <mxCell id="YcFo5e7i3pAqQ6xfK6MD-84" value="" style="edgeStyle=orthogonalEdgeStyle;rounded=0;orthogonalLoop=1;jettySize=auto;html=1;entryDx=0;entryDy=0;labelBackgroundColor=none;fontColor=default;endSize=8;startSize=8;strokeColor=#CC0000;endArrow=none;endFill=0;" parent="1" source="YcFo5e7i3pAqQ6xfK6MD-55" target="YcFo5e7i3pAqQ6xfK6MD-83" edge="1">
          <mxGeometry relative="1" as="geometry">
            <mxPoint x="1160" y="540" as="sourcePoint" />
            <mxPoint x="1280" y="730" as="targetPoint" />
            <Array as="points" />
          </mxGeometry>
        </mxCell>
        <mxCell id="YcFo5e7i3pAqQ6xfK6MD-85" style="edgeStyle=orthogonalEdgeStyle;shape=connector;rounded=0;hachureGap=4;orthogonalLoop=1;jettySize=auto;html=1;entryX=0.917;entryY=1;entryDx=0;entryDy=0;entryPerimeter=0;labelBackgroundColor=default;strokeColor=#CC0000;fontFamily=Architects Daughter;fontSource=https%3A%2F%2Ffonts.googleapis.com%2Fcss%3Ffamily%3DArchitects%2BDaughter;fontSize=16;fontColor=default;endArrow=classic;startSize=8;endSize=8;" parent="1" source="YcFo5e7i3pAqQ6xfK6MD-83" target="YcFo5e7i3pAqQ6xfK6MD-57" edge="1">
          <mxGeometry relative="1" as="geometry" />
        </mxCell>
        <mxCell id="YcFo5e7i3pAqQ6xfK6MD-83" value="" style="shape=waypoint;sketch=0;size=6;pointerEvents=1;points=[];fillColor=none;resizable=0;rotatable=0;perimeter=centerPerimeter;snapToPoint=1;fontFamily=Architects Daughter;fontSource=https%3A%2F%2Ffonts.googleapis.com%2Fcss%3Ffamily%3DArchitects%2BDaughter;fontSize=16;fontColor=default;strokeColor=#CC0000;" parent="1" vertex="1">
          <mxGeometry x="1230" y="530" width="20" height="20" as="geometry" />
        </mxCell>
        <mxCell id="YcFo5e7i3pAqQ6xfK6MD-87" value="" style="shape=waypoint;sketch=0;size=6;pointerEvents=1;points=[];fillColor=none;resizable=0;rotatable=0;perimeter=centerPerimeter;snapToPoint=1;fontFamily=Architects Daughter;fontSource=https%3A%2F%2Ffonts.googleapis.com%2Fcss%3Ffamily%3DArchitects%2BDaughter;fontSize=16;fontColor=default;strokeColor=#1ba1e2;" parent="1" vertex="1">
          <mxGeometry x="1860" y="960" width="20" height="20" as="geometry" />
        </mxCell>
        <mxCell id="YcFo5e7i3pAqQ6xfK6MD-91" style="edgeStyle=orthogonalEdgeStyle;shape=connector;rounded=0;hachureGap=4;orthogonalLoop=1;jettySize=auto;html=1;entryX=0.128;entryY=0.987;entryDx=0;entryDy=0;entryPerimeter=0;labelBackgroundColor=default;strokeColor=#1ba1e2;fontFamily=Architects Daughter;fontSource=https%3A%2F%2Ffonts.googleapis.com%2Fcss%3Ffamily%3DArchitects%2BDaughter;fontSize=16;fontColor=default;endArrow=classic;startSize=8;endSize=8;" parent="1" source="YcFo5e7i3pAqQ6xfK6MD-89" target="YcFo5e7i3pAqQ6xfK6MD-57" edge="1">
          <mxGeometry relative="1" as="geometry" />
        </mxCell>
        <mxCell id="YcFo5e7i3pAqQ6xfK6MD-89" value="" style="shape=waypoint;sketch=0;size=6;pointerEvents=1;points=[];fillColor=none;resizable=0;rotatable=0;perimeter=centerPerimeter;snapToPoint=1;fontFamily=Architects Daughter;fontSource=https%3A%2F%2Ffonts.googleapis.com%2Fcss%3Ffamily%3DArchitects%2BDaughter;fontSize=16;fontColor=default;strokeColor=#1ba1e2;" parent="1" vertex="1">
          <mxGeometry x="1860" y="390" width="20" height="20" as="geometry" />
        </mxCell>
        <mxCell id="YcFo5e7i3pAqQ6xfK6MD-94" style="edgeStyle=orthogonalEdgeStyle;shape=connector;rounded=0;hachureGap=4;orthogonalLoop=1;jettySize=auto;html=1;entryX=0.562;entryY=1.013;entryDx=0;entryDy=0;entryPerimeter=0;labelBackgroundColor=default;strokeColor=#cce5ff;fontFamily=Architects Daughter;fontSource=https%3A%2F%2Ffonts.googleapis.com%2Fcss%3Ffamily%3DArchitects%2BDaughter;fontSize=16;fontColor=default;endArrow=classic;startSize=8;endSize=8;" parent="1" source="YcFo5e7i3pAqQ6xfK6MD-93" target="YcFo5e7i3pAqQ6xfK6MD-57" edge="1">
          <mxGeometry relative="1" as="geometry">
            <Array as="points">
              <mxPoint x="1120" y="497" />
            </Array>
          </mxGeometry>
        </mxCell>
        <mxCell id="YcFo5e7i3pAqQ6xfK6MD-93" value="" style="shape=waypoint;sketch=0;size=6;pointerEvents=1;points=[];fillColor=none;resizable=0;rotatable=0;perimeter=centerPerimeter;snapToPoint=1;fontFamily=Architects Daughter;fontSource=https%3A%2F%2Ffonts.googleapis.com%2Fcss%3Ffamily%3DArchitects%2BDaughter;fontSize=16;fontColor=default;strokeColor=#cce5ff;" parent="1" vertex="1">
          <mxGeometry x="1110" y="580" width="20" height="20" as="geometry" />
        </mxCell>
        <mxCell id="YcFo5e7i3pAqQ6xfK6MD-96" value="" style="edgeStyle=orthogonalEdgeStyle;shape=connector;rounded=0;hachureGap=4;orthogonalLoop=1;jettySize=auto;html=1;entryDx=0;entryDy=0;entryPerimeter=0;labelBackgroundColor=default;strokeColor=#d80073;fontFamily=Architects Daughter;fontSource=https%3A%2F%2Ffonts.googleapis.com%2Fcss%3Ffamily%3DArchitects%2BDaughter;fontSize=16;fontColor=default;endArrow=none;startSize=8;endSize=8;endFill=0;" parent="1" source="YcFo5e7i3pAqQ6xfK6MD-76" target="YcFo5e7i3pAqQ6xfK6MD-95" edge="1">
          <mxGeometry relative="1" as="geometry">
            <mxPoint x="1140" y="820" as="sourcePoint" />
            <mxPoint x="1329" y="569" as="targetPoint" />
            <Array as="points" />
          </mxGeometry>
        </mxCell>
        <mxCell id="YcFo5e7i3pAqQ6xfK6MD-97" style="edgeStyle=orthogonalEdgeStyle;shape=connector;rounded=0;hachureGap=4;orthogonalLoop=1;jettySize=auto;html=1;entryX=0.335;entryY=1.027;entryDx=0;entryDy=0;entryPerimeter=0;labelBackgroundColor=default;strokeColor=#d80073;fontFamily=Architects Daughter;fontSource=https%3A%2F%2Ffonts.googleapis.com%2Fcss%3Ffamily%3DArchitects%2BDaughter;fontSize=16;fontColor=default;endArrow=classic;startSize=8;endSize=8;" parent="1" source="YcFo5e7i3pAqQ6xfK6MD-95" target="YcFo5e7i3pAqQ6xfK6MD-57" edge="1">
          <mxGeometry relative="1" as="geometry">
            <Array as="points">
              <mxPoint x="1140" y="470" />
            </Array>
          </mxGeometry>
        </mxCell>
        <mxCell id="YcFo5e7i3pAqQ6xfK6MD-95" value="" style="shape=waypoint;sketch=0;size=6;pointerEvents=1;points=[];fillColor=none;resizable=0;rotatable=0;perimeter=centerPerimeter;snapToPoint=1;fontFamily=Architects Daughter;fontSource=https%3A%2F%2Ffonts.googleapis.com%2Fcss%3Ffamily%3DArchitects%2BDaughter;fontSize=16;fontColor=default;strokeColor=#d80073;" parent="1" vertex="1">
          <mxGeometry x="1130" y="560" width="20" height="20" as="geometry" />
        </mxCell>
        <mxCell id="xbtp7WfYkMIQzA087Gdg-2" style="edgeStyle=none;curved=1;rounded=0;orthogonalLoop=1;jettySize=auto;html=1;entryX=1;entryY=0.5;entryDx=0;entryDy=0;fontSize=12;startSize=8;endSize=8;strokeColor=#1ba1e2;" edge="1" parent="1" source="xbtp7WfYkMIQzA087Gdg-1" target="m3mGF3cVDRf6Q7rcO0Uu-7">
          <mxGeometry relative="1" as="geometry" />
        </mxCell>
        <mxCell id="xbtp7WfYkMIQzA087Gdg-1" value="" style="shape=waypoint;sketch=0;size=6;pointerEvents=1;points=[];fillColor=none;resizable=0;rotatable=0;perimeter=centerPerimeter;snapToPoint=1;fontFamily=Architects Daughter;fontSource=https%3A%2F%2Ffonts.googleapis.com%2Fcss%3Ffamily%3DArchitects%2BDaughter;fontSize=16;fontColor=default;strokeColor=#1ba1e2;" vertex="1" parent="1">
          <mxGeometry x="1860" y="670" width="20" height="20" as="geometry" />
        </mxCell>
        <mxCell id="xbtp7WfYkMIQzA087Gdg-6" style="edgeStyle=none;curved=1;rounded=0;orthogonalLoop=1;jettySize=auto;html=1;exitX=0.5;exitY=1;exitDx=0;exitDy=0;entryX=1;entryY=0.5;entryDx=0;entryDy=0;fontSize=12;startSize=8;endSize=8;strokeColor=#6d8764;" edge="1" parent="1" source="xbtp7WfYkMIQzA087Gdg-3" target="m3mGF3cVDRf6Q7rcO0Uu-9">
          <mxGeometry relative="1" as="geometry" />
        </mxCell>
        <mxCell id="xbtp7WfYkMIQzA087Gdg-3" value="&lt;font style=&quot;font-size: 21px;&quot; face=&quot;Cambria&quot;&gt;MUX&lt;br&gt;INC&lt;br&gt;&lt;/font&gt;" style="shape=trapezoid;perimeter=trapezoidPerimeter;whiteSpace=wrap;html=1;fixedSize=1;fontFamily=Helvetica;fontSize=12;fontColor=default;rotation=90;horizontal=0;strokeColor=#6d8764;flipH=0;flipV=1;" vertex="1" parent="1">
          <mxGeometry x="1000" y="320" width="120" height="60" as="geometry" />
        </mxCell>
        <mxCell id="xbtp7WfYkMIQzA087Gdg-8" value="" style="edgeStyle=orthogonalEdgeStyle;shape=connector;rounded=0;hachureGap=4;orthogonalLoop=1;jettySize=auto;html=1;entryDx=0;entryDy=0;labelBackgroundColor=default;strokeColor=#6a00ff;fontFamily=Architects Daughter;fontSource=https%3A%2F%2Ffonts.googleapis.com%2Fcss%3Ffamily%3DArchitects%2BDaughter;fontSize=16;fontColor=default;endArrow=none;startSize=8;endSize=8;endFill=0;" edge="1" parent="1" source="m3mGF3cVDRf6Q7rcO0Uu-32" target="xbtp7WfYkMIQzA087Gdg-7">
          <mxGeometry relative="1" as="geometry">
            <Array as="points" />
            <mxPoint x="1250" y="290" as="sourcePoint" />
            <mxPoint x="1280" y="700" as="targetPoint" />
          </mxGeometry>
        </mxCell>
        <mxCell id="xbtp7WfYkMIQzA087Gdg-9" style="edgeStyle=none;curved=1;rounded=0;orthogonalLoop=1;jettySize=auto;html=1;entryX=0.25;entryY=0;entryDx=0;entryDy=0;fontSize=12;startSize=8;endSize=8;strokeColor=#6a00ff;" edge="1" parent="1" source="xbtp7WfYkMIQzA087Gdg-7" target="xbtp7WfYkMIQzA087Gdg-3">
          <mxGeometry relative="1" as="geometry" />
        </mxCell>
        <mxCell id="xbtp7WfYkMIQzA087Gdg-7" value="" style="shape=waypoint;sketch=0;size=6;pointerEvents=1;points=[];fillColor=none;resizable=0;rotatable=0;perimeter=centerPerimeter;snapToPoint=1;fontFamily=Architects Daughter;fontSource=https%3A%2F%2Ffonts.googleapis.com%2Fcss%3Ffamily%3DArchitects%2BDaughter;fontSize=16;fontColor=default;strokeColor=#6a00ff;" vertex="1" parent="1">
          <mxGeometry x="1240" y="310" width="20" height="20" as="geometry" />
        </mxCell>
        <mxCell id="xbtp7WfYkMIQzA087Gdg-11" value="" style="edgeStyle=orthogonalEdgeStyle;shape=connector;rounded=0;orthogonalLoop=1;jettySize=auto;html=1;exitX=0;exitY=0.5;exitDx=0;exitDy=0;entryDx=0;entryDy=0;labelBackgroundColor=default;strokeColor=#6d8764;fontFamily=Helvetica;fontSize=12;fontColor=default;endArrow=none;startSize=8;endSize=8;elbow=vertical;entryPerimeter=0;endFill=0;" edge="1" parent="1" source="m3mGF3cVDRf6Q7rcO0Uu-9" target="xbtp7WfYkMIQzA087Gdg-10">
          <mxGeometry relative="1" as="geometry">
            <Array as="points" />
            <mxPoint x="900" y="350" as="sourcePoint" />
            <mxPoint x="879" y="527" as="targetPoint" />
          </mxGeometry>
        </mxCell>
        <mxCell id="xbtp7WfYkMIQzA087Gdg-12" style="edgeStyle=orthogonalEdgeStyle;rounded=0;orthogonalLoop=1;jettySize=auto;html=1;entryX=0.25;entryY=1;entryDx=0;entryDy=0;fontSize=12;startSize=8;endSize=8;strokeColor=#6d8764;" edge="1" parent="1" source="xbtp7WfYkMIQzA087Gdg-10" target="xbtp7WfYkMIQzA087Gdg-14">
          <mxGeometry relative="1" as="geometry">
            <Array as="points">
              <mxPoint x="840" y="160" />
            </Array>
          </mxGeometry>
        </mxCell>
        <mxCell id="xbtp7WfYkMIQzA087Gdg-10" value="" style="shape=waypoint;sketch=0;size=6;pointerEvents=1;points=[];fillColor=none;resizable=0;rotatable=0;perimeter=centerPerimeter;snapToPoint=1;fontFamily=Architects Daughter;fontSource=https%3A%2F%2Ffonts.googleapis.com%2Fcss%3Ffamily%3DArchitects%2BDaughter;fontSize=16;fontColor=default;strokeColor=#6d8764;" vertex="1" parent="1">
          <mxGeometry x="830" y="340" width="20" height="20" as="geometry" />
        </mxCell>
        <mxCell id="xbtp7WfYkMIQzA087Gdg-15" style="edgeStyle=orthogonalEdgeStyle;shape=connector;rounded=0;orthogonalLoop=1;jettySize=auto;html=1;exitX=0.5;exitY=0;exitDx=0;exitDy=0;entryX=0;entryY=0.5;entryDx=0;entryDy=0;labelBackgroundColor=default;strokeColor=#6a00ff;fontFamily=Helvetica;fontSize=12;fontColor=default;endArrow=classic;startSize=8;endSize=8;" edge="1" parent="1" source="xbtp7WfYkMIQzA087Gdg-14" target="m3mGF3cVDRf6Q7rcO0Uu-32">
          <mxGeometry relative="1" as="geometry" />
        </mxCell>
        <mxCell id="xbtp7WfYkMIQzA087Gdg-14" value="&lt;font style=&quot;font-size: 21px;&quot; face=&quot;Cambria&quot;&gt;MUX&lt;br&gt;SP&lt;br&gt;&lt;/font&gt;" style="shape=trapezoid;perimeter=trapezoidPerimeter;whiteSpace=wrap;html=1;fixedSize=1;fontFamily=Helvetica;fontSize=12;fontColor=default;rotation=90;horizontal=0;strokeColor=#6a00ff;flipH=0;flipV=0;" vertex="1" parent="1">
          <mxGeometry x="1080" y="160" width="120" height="60" as="geometry" />
        </mxCell>
        <mxCell id="xbtp7WfYkMIQzA087Gdg-19" style="edgeStyle=orthogonalEdgeStyle;shape=connector;rounded=0;orthogonalLoop=1;jettySize=auto;html=1;labelBackgroundColor=default;strokeColor=#6a00ff;fontFamily=Helvetica;fontSize=12;fontColor=default;endArrow=classic;startSize=8;endSize=8;" edge="1" parent="1" source="xbtp7WfYkMIQzA087Gdg-18" target="m3mGF3cVDRf6Q7rcO0Uu-52">
          <mxGeometry relative="1" as="geometry" />
        </mxCell>
        <mxCell id="xbtp7WfYkMIQzA087Gdg-18" value="" style="shape=waypoint;sketch=0;size=6;pointerEvents=1;points=[];fillColor=none;resizable=0;rotatable=0;perimeter=centerPerimeter;snapToPoint=1;fontFamily=Architects Daughter;fontSource=https%3A%2F%2Ffonts.googleapis.com%2Fcss%3Ffamily%3DArchitects%2BDaughter;fontSize=16;fontColor=default;strokeColor=#6a00ff;" vertex="1" parent="1">
          <mxGeometry x="1240" y="270" width="20" height="20" as="geometry" />
        </mxCell>
      </root>
    </mxGraphModel>
  </diagram>
</mxfile>
